<?xml version="1.0" encoding="utf-8"?>
<!-- Generator: Adobe Illustrator 27.5.0, SVG Export Plug-In . SVG Version: 6.00 Build 0)  -->
<svg version="1.1" xmlns="http://www.w3.org/2000/svg" xmlns:xlink="http://www.w3.org/1999/xlink" x="0px" y="0px"
	 viewBox="0 0 500 500" style="enable-background:new 0 0 500 500;" xml:space="preserve">
<g id="Background_Complete">
	<g>
		<rect x="416.779" y="398.494" style="fill:#EBEBEB;" width="33.122" height="0.25"/>
		<rect x="322.527" y="401.208" style="fill:#EBEBEB;" width="8.693" height="0.25"/>
		<rect x="396.586" y="389.208" style="fill:#EBEBEB;" width="19.192" height="0.25"/>
		<rect x="52.459" y="390.888" style="fill:#EBEBEB;" width="43.193" height="0.25"/>
		<rect x="104.556" y="390.888" style="fill:#EBEBEB;" width="6.333" height="0.25"/>
		<rect x="131.471" y="395.111" style="fill:#EBEBEB;" width="93.676" height="0.25"/>
		<path style="fill:#EBEBEB;" d="M237.014,337.8H43.915c-3.147,0-5.708-2.561-5.708-5.708V60.66c0-3.147,2.561-5.708,5.708-5.708
			h193.099c3.146,0,5.707,2.561,5.707,5.708v271.432C242.721,335.239,240.16,337.8,237.014,337.8z M43.915,55.203
			c-3.01,0-5.458,2.448-5.458,5.458v271.432c0,3.01,2.448,5.458,5.458,5.458h193.099c3.009,0,5.457-2.448,5.457-5.458V60.66
			c0-3.009-2.448-5.458-5.457-5.458H43.915z"/>
		<path style="fill:#EBEBEB;" d="M453.31,337.8H260.212c-3.147,0-5.707-2.561-5.707-5.708V60.66c0-3.147,2.561-5.708,5.707-5.708
			H453.31c3.148,0,5.708,2.561,5.708,5.708v271.432C459.019,335.239,456.458,337.8,453.31,337.8z M260.212,55.203
			c-3.009,0-5.457,2.448-5.457,5.458v271.432c0,3.01,2.448,5.458,5.457,5.458H453.31c3.01,0,5.458-2.448,5.458-5.458V60.66
			c0-3.009-2.448-5.458-5.458-5.458H260.212z"/>
		<rect y="382.398" style="fill:#EBEBEB;" width="500" height="0.25"/>
	</g>
	<g>
		<path style="fill:#FAFAFA;" d="M167.279,128.956l-29.139-1.698c-1.032-0.06-2.059,0.183-2.955,0.699l0,0
			c-9.627,8.342-20.013,2.774-24.587-0.514c-1.743-1.254-3.793-2.01-5.937-2.135l-32.465-1.891
			c-12.18-0.71-14.126-17.935-2.388-21.267c0.149-0.042,0.3-0.083,0.452-0.124c-12.107-11.344,17.117-32.071,45.64,0.647
			c-1.762-10.457,24.977-5.159,32.404,9.403C151.772,103.001,176.544,120.561,167.279,128.956z"/>
		<g>
			<g>
				<path style="fill:#F5F5F5;" d="M190.034,91.28c3.737-10.653,11.65-24.502,39.722-21.481
					c28.071,3.02,13.999,19.954,30.047,22.031c16.047,2.078,13.713-6.304,26.734,7.015c13.021,13.318,11.509,1.722,22.588,8.329
					C320.203,113.781,181.274,116.25,190.034,91.28z"/>
			</g>
		</g>
		<path style="fill:#F5F5F5;" d="M352.865,123.78l20.541-0.395l1.707,0.725c9.407,3.996,20.119,3.512,29.128-1.318l0,0l17.182-0.33
			c0,0,15.961-6.364,13.573-22.362c-2.387-15.997-26.403-2.168-26.403-2.168s6.927-22.517-16.456-15.716
			c-23.384,6.8-25.248,29.027-25.248,29.027S335.914,106.448,352.865,123.78z"/>
	</g>
	<g>
		<g>
			<g>
				<g>
					<g>
						<g>
							<path style="fill:#E0E0E0;" d="M406.995,357.7l-0.723,0.089c-0.045-0.367-4.434-37.094,4.619-67.106
								c8.998-29.83,2.802-48.837,2.738-49.025l0.691-0.233c0.064,0.191,6.333,19.419-2.732,49.469
								C402.581,320.756,406.95,357.334,406.995,357.7z"/>
						</g>
						<g>
							<g>
								<path style="fill:#E0E0E0;" d="M414.92,245.748c-1.562-1.869-3.728-3.204-6.099-3.76l0.166-0.71
									c2.524,0.592,4.83,2.013,6.493,4.003L414.92,245.748z"/>
							</g>
						</g>
						<g>
							
								<rect x="415.957" y="249.341" transform="matrix(0.8707 -0.4918 0.4918 0.8707 -68.8698 237.4259)" style="fill:#E0E0E0;" width="2.395" height="0.729"/>
						</g>
						<g>
							<path style="fill:#E0E0E0;" d="M414.136,265.719c-1.792-4.111-5.209-7.425-9.372-9.093l0.271-0.677
								c4.34,1.739,7.901,5.193,9.77,9.478L414.136,265.719z"/>
						</g>
						<g>
							<path style="fill:#E0E0E0;" d="M412.181,288.664l-0.729,0.009c-0.036-2.964-1.446-5.83-3.771-7.668l0.452-0.572
								C410.63,282.406,412.143,285.483,412.181,288.664z"/>
						</g>
						<g>
							<path style="fill:#E0E0E0;" d="M410.556,294.531l-0.678-0.267c0.731-1.855,2.28-3.385,4.145-4.091l0.258,0.682
								C412.605,291.49,411.213,292.864,410.556,294.531z"/>
						</g>
						<g>
							<path style="fill:#E0E0E0;" d="M405.833,331.755l-0.561-0.465c0.886-1.069,1.557-5.141,1.917-7.328
								c0.086-0.523,0.159-0.969,0.221-1.291l0.716,0.136c-0.06,0.318-0.133,0.757-0.218,1.273
								C407.371,327.346,406.767,330.628,405.833,331.755z"/>
						</g>
						<g>
							<path style="fill:#E0E0E0;" d="M405.411,343.444c-0.941-2.879-3.932-4.943-6.957-4.802l-0.034-0.728
								c3.341-0.156,6.645,2.124,7.684,5.303L405.411,343.444z"/>
						</g>
						<g>
							
								<rect x="404.835" y="353.808" transform="matrix(0.6663 -0.7457 0.7457 0.6663 -127.7164 422.9738)" style="fill:#E0E0E0;" width="7.708" height="0.729"/>
						</g>
					</g>
					<g>
						<path style="fill:#F0F0F0;" d="M414.612,313.587c1.164,3.767-6.954,10.939-6.954,10.939s-10.748-1.344-11.912-5.111
							c-1.164-3.767,1.559-9.931,6.768-11.541C407.724,306.265,413.448,309.82,414.612,313.587z"/>
						<path style="fill:#EBEBEB;" d="M423.621,267.869c-1.03,4.001-8.718,6.843-8.718,6.843s-5.36-6.201-4.33-10.202
							c1.03-4.001,5.28-8.41,8.883-7.482C423.058,257.955,424.651,263.868,423.621,267.869z"/>
						<path style="fill:#F5F5F5;" d="M392.771,327.657c4.828,1.88,7.786,10.418,7.786,10.418s-7.953,4.289-12.781,2.409
							c-4.828-1.88-9.937-7.176-8.558-10.718C380.598,326.224,387.943,325.777,392.771,327.657z"/>
						<path style="fill:#E6E6E6;" d="M403.355,280.684c1.02,0.757,2.072,1.53,3.299,1.863c1.226,0.333,2.685,0.129,3.518-0.83
							c1.033-1.189,0.756-3.032,0.105-4.467c-1.289-2.842-6.047-7.665-9.701-6.282C395.302,272.966,401.003,278.938,403.355,280.684
							z"/>
						<path style="fill:#EBEBEB;" d="M414.151,287.926c-0.692,0.858-1.427,1.939-1.048,2.974c0.336,0.918,1.464,1.339,2.43,1.193
							c0.967-0.146,1.807-0.719,2.61-1.277c1.862-1.293,5.68-4.006,3.243-6.544C418.853,281.635,415.609,286.119,414.151,287.926z"
							/>
						<path style="fill:#E0E0E0;" d="M398.572,251.815c-0.797,0.088-1.604,0.621-1.74,1.411c-0.159,0.924,0.607,1.732,1.35,2.304
							c1.849,1.425,7.406,5.271,8.647,1.561C408.001,253.586,401.029,251.544,398.572,251.815z"/>
						<g>
							<path style="fill:#E6E6E6;" d="M408.816,239.611c-1.147,0.109-2.29-0.307-3.44-0.234c-1.15,0.073-2.425,0.998-2.169,2.121
								c0.236,1.038,1.526,1.385,2.589,1.452c1.813,0.114,3.64-0.012,5.42-0.374c0.413-0.084,0.863-0.206,1.1-0.555
								c0.465-0.684-0.275-1.602-1.066-1.844c-0.791-0.243-1.684-0.162-2.402-0.572L408.816,239.611z"/>
						</g>
						<g>
							<path style="fill:#F0F0F0;" d="M420.022,247.501c1.151,0.033,2.265-0.457,3.417-0.46c1.152-0.003,2.485,0.835,2.305,1.973
								c-0.167,1.051-1.432,1.483-2.487,1.62c-1.801,0.233-3.633,0.228-5.433-0.016c-0.418-0.057-0.875-0.149-1.134-0.482
								c-0.509-0.652,0.168-1.616,0.942-1.911c0.773-0.294,1.669-0.272,2.359-0.729L420.022,247.501z"/>
						</g>
						<g>
							<path style="fill:#F0F0F0;" d="M418.888,332.329c0.284-0.24,0.606-0.487,0.978-0.484c0.494,0.004,0.886,0.469,0.978,0.954
								c0.092,0.485-0.044,0.981-0.186,1.454c-0.779,2.611-9.542,21.521-11.558,18.125c-1.192-2.008,1.737-8.657,2.601-10.538
								C413.373,338.202,415.826,334.915,418.888,332.329z"/>
						</g>
					</g>
				</g>
				<g>
					<path style="fill:#E6E6E6;" d="M413.647,240.33c0.695-1.561,1.448-3.194,2.83-4.199c1.382-1.005,3.596-1.08,4.602,0.301
						c1.125,1.544,0,3.89-1.724,4.713c-1.724,0.823-3.744,0.576-5.636,0.31c-0.015-0.281-0.031-0.562-0.046-0.843L413.647,240.33z"
						/>
				</g>
			</g>
			<g>
				<path style="fill:#E6E6E6;" d="M419.682,382.727L419.682,382.727c-9.222,1.861-18.952,1.861-28.174,0l0,0l-7.352-32.338h42.877
					L419.682,382.727z"/>
			</g>
		</g>
		<g>
			<g>
				<g>
					
						<rect x="110.122" y="174.614" transform="matrix(-1 -1.224647e-16 1.224647e-16 -1 246.7274 398.3908)" style="fill:#EBEBEB;" width="26.482" height="49.163"/>
					
						<rect x="117.503" y="174.614" transform="matrix(-1 -1.224647e-16 1.224647e-16 -1 261.4883 398.3908)" style="fill:#F5F5F5;" width="26.482" height="49.163"/>
					<rect x="107.949" y="163.901" style="fill:#F5F5F5;" width="39.509" height="10.715"/>
					<rect x="107.949" y="163.901" style="fill:#EBEBEB;" width="6.084" height="10.715"/>
				</g>
				
					<rect x="86.288" y="249.085" transform="matrix(-1 -1.224647e-16 1.224647e-16 -1 352.1797 631.4817)" style="fill:#E6E6E6;" width="179.605" height="133.311"/>
				<g>
					<polygon style="fill:#F5F5F5;" points="174.572,147.48 276.177,249.085 72.966,249.085 					"/>
					
						<rect x="72.966" y="249.085" transform="matrix(-1 -1.224647e-16 1.224647e-16 -1 349.1436 509.8956)" style="fill:#E0E0E0;" width="203.211" height="11.725"/>
				</g>
			</g>
			<g>
				<rect x="146.383" y="272.055" style="fill:#E0E0E0;" width="50.542" height="50.542"/>
				<rect x="148.244" y="272.055" style="fill:#F0F0F0;" width="50.542" height="50.542"/>
				<rect x="150.703" y="274.11" style="fill:#FFFFFF;" width="45.526" height="45.526"/>
				<rect x="194.627" y="274.11" style="fill:#E0E0E0;" width="1.602" height="45.526"/>
				
					<rect x="171.879" y="276.955" transform="matrix(6.123234e-17 -1 1 6.123234e-17 -126.3935 471.7532)" style="fill:#E0E0E0;" width="1.602" height="44.237"/>
				<rect x="149.844" y="295.582" style="fill:#F0F0F0;" width="46.386" height="2.69"/>
			</g>
		</g>
	</g>
</g>
<g id="Background_Simple" style="display:none;">
	<g style="display:inline;">
		<path style="fill:#407BFF;" d="M135.164,351.15c-41.552-18.852-70.883-61.283-75.781-106.647
			c-4.898-45.365,14-92.223,47.682-123.004c33.682-30.781,81.052-45.366,126.462-40.896c36.833,3.626,68.983,26.415,90.26,56.7
			c7.749,11.029,14.047,23.33,24.039,32.377c19.311,17.485,48.613,19.577,69.036,35.749c22.507,17.822,29.636,50.862,20.908,78.211
			s-31.064,48.917-56.792,61.655c-25.728,12.738-54.688,17.503-83.335,19.379C284.445,365.538,172.023,367.872,135.164,351.15z"/>
		<path style="opacity:0.9;fill:#FFFFFF;" d="M135.164,351.15c-41.552-18.852-70.883-61.283-75.781-106.647
			c-4.898-45.365,14-92.223,47.682-123.004c33.682-30.781,81.052-45.366,126.462-40.896c36.833,3.626,68.983,26.415,90.26,56.7
			c7.749,11.029,14.047,23.33,24.039,32.377c19.311,17.485,48.613,19.577,69.036,35.749c22.507,17.822,29.636,50.862,20.908,78.211
			s-31.064,48.917-56.792,61.655c-25.728,12.738-54.688,17.503-83.335,19.379C284.445,365.538,172.023,367.872,135.164,351.15z"/>
	</g>
</g>
<g id="Shadow">
	<ellipse id="_x3C_Path_x3E__1_" style="fill:#F5F5F5;" cx="245.178" cy="412.391" rx="193.889" ry="11.323"/>
</g>
<g id="Sign">
	<g>
		<path style="fill:#407BFF;" d="M353.017,327.065l14.82,84.696h11.365l-0.888-7.021h16.385l1.569,7.021h11.365l-14.82-84.696
			H353.017z M361.733,335.483c-0.253-2.893,1.884-5.235,4.777-5.235h13.367c1.442,0,2.805,0.587,3.833,1.531
			c1.032,0.949,1.733,2.257,1.86,3.703c0.253,2.888-1.889,5.235-4.777,5.235h-13.367c-1.446,0-2.805-0.587-3.838-1.536
			C362.56,338.237,361.859,336.925,361.733,335.483z"/>
		<path style="opacity:0.3;" d="M353.017,327.065l14.82,84.696h11.365l-0.888-7.021h16.385l1.569,7.021h11.365l-14.82-84.696
			H353.017z M362.469,335.483c-0.506-2.893,1.426-5.235,4.319-5.235h13.367c1.442,0,2.857,0.587,3.967,1.531
			c1.115,0.949,1.931,2.257,2.184,3.703c0.505,2.888-1.431,5.235-4.319,5.235H368.62c-1.446,0-2.857-0.587-3.972-1.536
			C363.538,338.237,362.721,336.925,362.469,335.483z"/>
		<path style="fill:#407BFF;" d="M352.978,327.065l-14.82,84.696h11.365l1.569-7.021h16.385l-0.888,7.021h11.365l14.82-84.696
			H352.978z M381.142,339.182c-1.115,0.949-2.526,1.536-3.972,1.536h-13.367c-2.888,0-4.824-2.346-4.319-5.235
			c0.253-1.446,1.069-2.754,2.184-3.703c1.11-0.945,2.525-1.531,3.967-1.531h13.367c2.893,0,4.825,2.342,4.319,5.235
			C383.069,336.925,382.252,338.237,381.142,339.182z"/>
		<g>
			<g>
				<path style="fill:#263238;" d="M368.404,363.806h-2.971l1.079-6.165c0.066-0.379,0.427-0.686,0.806-0.686h1.599
					c0.379,0,0.632,0.307,0.566,0.686L368.404,363.806z"/>
			</g>
			<path style="fill:#263238;" d="M376.734,369.442h-21.898l0.574-3.283c0.272-1.556,1.754-2.817,3.31-2.817h16.264
				c1.556,0,2.596,1.261,2.324,2.817L376.734,369.442z"/>
			<path style="fill:#407BFF;" d="M376.735,369.443l-2.916,16.666l-4.99-0.049l0.662-6.156l-1.409,6.149l-3.76-0.038l0.656-6.111
				l-1.397,6.103l-7.252-0.072l1.055-6.031l-1.887,6.023l-6.211-0.062l0.599-1.297c2.459-5.313,3.983-9.598,4.951-15.125H376.735z"
				/>
			<path style="opacity:0.5;fill:#FFFFFF;" d="M376.735,369.443l-2.916,16.666l-4.99-0.049l0.662-6.156l-1.409,6.149l-3.76-0.038
				l0.656-6.111l-1.397,6.103l-7.252-0.072l1.055-6.031l-1.887,6.023l-6.211-0.062l0.599-1.297
				c2.459-5.313,3.983-9.598,4.951-15.125H376.735z"/>
		</g>
	</g>
</g>
<g id="Device">
	<g>
		<g>
			<g>
				<g>
					<path style="fill:#407BFF;" d="M315.543,359.151H213.617c-11.466,0-20.112-9.296-19.31-20.762l17.035-243.618
						c0.802-11.466,10.747-20.762,22.214-20.762h101.926c11.466,0,20.112,9.295,19.31,20.762L337.757,338.39
						C336.955,349.856,327.009,359.151,315.543,359.151z"/>
					<path style="fill:#263238;" d="M310.25,359.151H208.324c-11.467,0-20.112-9.296-19.31-20.762l17.036-243.618
						c0.802-11.466,10.747-20.762,22.214-20.762H330.19c11.466,0,20.112,9.295,19.31,20.762L332.464,338.39
						C331.662,349.856,321.717,359.151,310.25,359.151z"/>
					<g>
						<path style="fill:#407BFF;" d="M329.856,78.773h-26.493c-1.735,0-3.29,1.29-3.63,3.011l-0.164,0.83
							c-0.831,4.203-4.628,7.353-8.866,7.353h-25.186c-4.238,0-7.595-3.15-7.837-7.353l-0.048-0.83
							c-0.1-1.721-1.474-3.011-3.209-3.011H227.93c-8.836,0-16.499,7.163-17.117,15.998l-17.035,243.618
							c-0.618,8.836,6.044,15.999,14.88,15.999h101.926c8.836,0,16.5-7.163,17.117-15.999l17.035-243.618
							C345.354,85.936,338.692,78.773,329.856,78.773z"/>
						<path style="opacity:0.8;fill:#FFFFFF;" d="M344.734,94.77l-0.35,4.95l-16.68,238.67c-0.62,8.84-8.29,16-17.12,16h-101.93
							c-8.84,0-15.49-7.16-14.87-16l16.68-238.67l0.35-4.95c0.62-8.83,8.28-16,17.11-16h26.5c1.74,0,3.11,1.29,3.21,3.02l0.05,0.82
							c0.24,4.2,3.6,7.36,7.83,7.36h25.18c4.25,0,8.05-3.16,8.87-7.36l0.16-0.82c0.35-1.73,1.91-3.02,3.64-3.02h26.49
							C338.694,78.77,345.354,85.94,344.734,94.77z"/>
						<path style="opacity:0.7;" d="M344.384,100.396l-16.68,238.67c-0.62,8.84-8.29,16-17.12,16h-101.93
							c-8.84,0-15.49-7.16-14.87-16l16.68-238.67H344.384z"/>
					</g>
					<g style="opacity:0.7;">
						<path d="M272.54,81.473c-0.078,1.118-1.048,2.024-2.166,2.024c-1.118,0-1.961-0.906-1.883-2.024
							c0.078-1.118,1.048-2.024,2.166-2.024C271.775,79.448,272.618,80.354,272.54,81.473z"/>
						<path d="M287.035,79.448c-0.8,0-6.141,0-6.941,0c-1.118,0-2.088,0.906-2.166,2.024c-0.078,1.118,0.765,2.024,1.883,2.024
							c0.694,0,6.247,0,6.941,0c1.118,0,2.088-0.906,2.166-2.024C288.996,80.354,288.153,79.448,287.035,79.448z"/>
					</g>
					<g>
						<polygon style="fill:#407BFF;" points="222.245,89.927 224.389,89.927 224.539,87.784 222.395,87.784 						"/>
						<polygon style="fill:#407BFF;" points="226.682,87.784 226.532,89.927 228.676,89.927 228.826,87.784 228.976,85.64 
							226.832,85.64 						"/>
						<polygon style="fill:#407BFF;" points="231.269,83.497 231.119,85.64 230.969,87.784 230.819,89.927 232.963,89.927 
							233.113,87.784 233.263,85.64 233.413,83.497 						"/>
					</g>
					<path style="fill:#407BFF;" d="M323.436,83.64l-0.11,1.572h-1.048l-0.22,3.144h1.048l-0.11,1.572h9.431l0.44-6.288H323.436z
						 M327.298,88.355h-3.144l0.22-3.144h3.144L327.298,88.355z"/>
				</g>
			</g>
			<g>
				<g>
					<path style="fill:#407BFF;" d="M270.069,202.033l-4.399,2.33c0.144,1.34,0.383,2.647,0.707,3.916l4.798-0.079
						c0.677,2.096,1.643,4.047,2.855,5.813l-2.823,4.109c0.801,1.021,1.676,1.979,2.618,2.869l4.325-2.464
						c1.647,1.366,3.498,2.503,5.519,3.364l-0.498,4.791c1.231,0.435,2.507,0.789,3.824,1.05l2.697-4.195
						c1.086,0.147,2.197,0.23,3.336,0.23c1.139,0,2.265-0.083,3.377-0.23l1.963,4.195c1.363-0.261,2.7-0.615,4.008-1.05l0.34-4.791
						c2.171-0.861,4.222-1.997,6.107-3.364l3.894,2.464c1.099-0.89,2.141-1.849,3.12-2.869l-2.105-4.109
						c1.521-1.766,2.828-3.717,3.872-5.813l4.784,0.079c0.546-1.269,1.014-2.575,1.392-3.916l-3.991-2.33
						c0.243-1.099,0.424-2.218,0.524-3.357c0.1-1.139,0.115-2.258,0.064-3.357l4.399-2.33c-0.144-1.34-0.383-2.647-0.707-3.916
						l-4.798,0.079c-0.677-2.095-1.643-4.047-2.855-5.813l2.823-4.109c-0.801-1.021-1.676-1.979-2.618-2.869l-4.325,2.464
						c-1.646-1.366-3.498-2.503-5.519-3.363l0.499-4.791c-1.231-0.435-2.507-0.789-3.824-1.05l-2.697,4.195
						c-1.086-0.147-2.198-0.23-3.336-0.23c-1.139,0-2.265,0.083-3.377,0.23l-1.963-4.195c-1.363,0.261-2.701,0.615-4.008,1.05
						l-0.34,4.791c-2.171,0.861-4.222,1.997-6.107,3.363l-3.894-2.464c-1.098,0.89-2.141,1.849-3.12,2.869l2.104,4.109
						c-1.521,1.766-2.828,3.717-3.872,5.813l-4.784-0.079c-0.546,1.269-1.014,2.576-1.392,3.916l3.991,2.33
						c-0.243,1.099-0.424,2.218-0.524,3.357C270.033,199.815,270.018,200.934,270.069,202.033z M286.692,198.676
						c0.412-4.711,4.565-8.531,9.277-8.531s8.197,3.819,7.784,8.531c-0.412,4.711-4.565,8.531-9.277,8.531
						C289.765,207.207,286.28,203.387,286.692,198.676z"/>
					<path style="opacity:0.4;fill:#FFFFFF;" d="M270.069,202.033l-4.399,2.33c0.144,1.34,0.383,2.647,0.707,3.916l4.798-0.079
						c0.677,2.096,1.643,4.047,2.855,5.813l-2.823,4.109c0.801,1.021,1.676,1.979,2.618,2.869l4.325-2.464
						c1.647,1.366,3.498,2.503,5.519,3.364l-0.498,4.791c1.231,0.435,2.507,0.789,3.824,1.05l2.697-4.195
						c1.086,0.147,2.197,0.23,3.336,0.23c1.139,0,2.265-0.083,3.377-0.23l1.963,4.195c1.363-0.261,2.7-0.615,4.008-1.05l0.34-4.791
						c2.171-0.861,4.222-1.997,6.107-3.364l3.894,2.464c1.099-0.89,2.141-1.849,3.12-2.869l-2.105-4.109
						c1.521-1.766,2.828-3.717,3.872-5.813l4.784,0.079c0.546-1.269,1.014-2.575,1.392-3.916l-3.991-2.33
						c0.243-1.099,0.424-2.218,0.524-3.357c0.1-1.139,0.115-2.258,0.064-3.357l4.399-2.33c-0.144-1.34-0.383-2.647-0.707-3.916
						l-4.798,0.079c-0.677-2.095-1.643-4.047-2.855-5.813l2.823-4.109c-0.801-1.021-1.676-1.979-2.618-2.869l-4.325,2.464
						c-1.646-1.366-3.498-2.503-5.519-3.363l0.499-4.791c-1.231-0.435-2.507-0.789-3.824-1.05l-2.697,4.195
						c-1.086-0.147-2.198-0.23-3.336-0.23c-1.139,0-2.265,0.083-3.377,0.23l-1.963-4.195c-1.363,0.261-2.701,0.615-4.008,1.05
						l-0.34,4.791c-2.171,0.861-4.222,1.997-6.107,3.363l-3.894-2.464c-1.098,0.89-2.141,1.849-3.12,2.869l2.104,4.109
						c-1.521,1.766-2.828,3.717-3.872,5.813l-4.784-0.079c-0.546,1.269-1.014,2.576-1.392,3.916l3.991,2.33
						c-0.243,1.099-0.424,2.218-0.524,3.357C270.033,199.815,270.018,200.934,270.069,202.033z M286.692,198.676
						c0.412-4.711,4.565-8.531,9.277-8.531s8.197,3.819,7.784,8.531c-0.412,4.711-4.565,8.531-9.277,8.531
						C289.765,207.207,286.28,203.387,286.692,198.676z"/>
				</g>
				<g>
					<path style="fill:#407BFF;" d="M227.626,165.134l-7.312,3.873c0.134,1.089,0.33,2.155,0.579,3.198l7.984-0.132
						c0.556,1.573,1.285,3.057,2.171,4.427l-4.698,6.837c0.667,0.822,1.381,1.604,2.138,2.343l7.195-4.1
						c1.282,1.006,2.69,1.865,4.203,2.558l-0.829,7.972c1.014,0.34,2.054,0.629,3.123,0.859l4.483-6.973
						c0.832,0.091,1.68,0.14,2.544,0.14c0.864,0,1.721-0.05,2.569-0.14l3.263,6.973c1.109-0.229,2.2-0.519,3.273-0.859l0.566-7.972
						c1.634-0.694,3.192-1.553,4.651-2.558l6.478,4.1c0.887-0.739,1.737-1.521,2.549-2.343l-3.501-6.837
						c1.125-1.37,2.114-2.853,2.946-4.427l7.961,0.132c0.431-1.043,0.814-2.11,1.138-3.198l-6.634-3.873
						c0.164-0.84,0.288-1.692,0.364-2.556c0.076-0.864,0.1-1.716,0.083-2.556l7.312-3.873c-0.134-1.089-0.33-2.155-0.579-3.198
						l-7.984,0.132c-0.556-1.573-1.285-3.057-2.171-4.427l4.698-6.837c-0.667-0.822-1.381-1.604-2.138-2.343l-7.195,4.099
						c-1.282-1.006-2.69-1.865-4.203-2.559l0.829-7.972c-1.014-0.34-2.054-0.629-3.123-0.859l-4.483,6.973
						c-0.832-0.091-1.68-0.14-2.544-0.14c-0.864,0-1.721,0.05-2.569,0.14l-3.263-6.973c-1.109,0.229-2.2,0.519-3.273,0.859
						l-0.565,7.972c-1.634,0.694-3.192,1.553-4.651,2.559l-6.478-4.099c-0.887,0.739-1.737,1.521-2.548,2.343l3.501,6.837
						c-1.125,1.37-2.114,2.854-2.946,4.427l-7.961-0.132c-0.431,1.043-0.814,2.109-1.139,3.198l6.634,3.873
						c-0.164,0.84-0.288,1.692-0.364,2.556C227.634,163.441,227.609,164.294,227.626,165.134z M241.283,162.577
						c0.483-5.516,5.345-9.987,10.861-9.987s9.596,4.471,9.113,9.987c-0.482,5.516-5.345,9.987-10.86,9.987
						C244.88,172.564,240.8,168.093,241.283,162.577z"/>
					<path style="opacity:0.3;fill:#FFFFFF;" d="M227.626,165.134l-7.312,3.873c0.134,1.089,0.33,2.155,0.579,3.198l7.984-0.132
						c0.556,1.573,1.285,3.057,2.171,4.427l-4.698,6.837c0.667,0.822,1.381,1.604,2.138,2.343l7.195-4.1
						c1.282,1.006,2.69,1.865,4.203,2.558l-0.829,7.972c1.014,0.34,2.054,0.629,3.123,0.859l4.483-6.973
						c0.832,0.091,1.68,0.14,2.544,0.14c0.864,0,1.721-0.05,2.569-0.14l3.263,6.973c1.109-0.229,2.2-0.519,3.273-0.859l0.566-7.972
						c1.634-0.694,3.192-1.553,4.651-2.558l6.478,4.1c0.887-0.739,1.737-1.521,2.549-2.343l-3.501-6.837
						c1.125-1.37,2.114-2.853,2.946-4.427l7.961,0.132c0.431-1.043,0.814-2.11,1.138-3.198l-6.634-3.873
						c0.164-0.84,0.288-1.692,0.364-2.556c0.076-0.864,0.1-1.716,0.083-2.556l7.312-3.873c-0.134-1.089-0.33-2.155-0.579-3.198
						l-7.984,0.132c-0.556-1.573-1.285-3.057-2.171-4.427l4.698-6.837c-0.667-0.822-1.381-1.604-2.138-2.343l-7.195,4.099
						c-1.282-1.006-2.69-1.865-4.203-2.559l0.829-7.972c-1.014-0.34-2.054-0.629-3.123-0.859l-4.483,6.973
						c-0.832-0.091-1.68-0.14-2.544-0.14c-0.864,0-1.721,0.05-2.569,0.14l-3.263-6.973c-1.109,0.229-2.2,0.519-3.273,0.859
						l-0.565,7.972c-1.634,0.694-3.192,1.553-4.651,2.559l-6.478-4.099c-0.887,0.739-1.737,1.521-2.548,2.343l3.501,6.837
						c-1.125,1.37-2.114,2.854-2.946,4.427l-7.961-0.132c-0.431,1.043-0.814,2.109-1.139,3.198l6.634,3.873
						c-0.164,0.84-0.288,1.692-0.364,2.556C227.634,163.441,227.609,164.294,227.626,165.134z M241.283,162.577
						c0.483-5.516,5.345-9.987,10.861-9.987s9.596,4.471,9.113,9.987c-0.482,5.516-5.345,9.987-10.86,9.987
						C244.88,172.564,240.8,168.093,241.283,162.577z"/>
				</g>
				<g>
					<path style="fill:#407BFF;" d="M245.789,238.034l-4.857,2.573c0.089,0.723,0.219,1.431,0.385,2.125l5.303-0.088
						c0.37,1.045,0.854,2.031,1.442,2.941l-3.121,4.542c0.443,0.546,0.917,1.066,1.42,1.557l4.78-2.723
						c0.852,0.668,1.787,1.239,2.792,1.7l-0.551,5.296c0.673,0.226,1.365,0.418,2.075,0.57l2.978-4.632
						c0.553,0.06,1.116,0.093,1.69,0.093c0.574,0,1.143-0.033,1.706-0.093l2.168,4.632c0.737-0.152,1.462-0.344,2.174-0.57
						l0.376-5.296c1.085-0.461,2.121-1.032,3.089-1.7l4.303,2.723c0.589-0.491,1.154-1.011,1.693-1.557l-2.326-4.542
						c0.748-0.91,1.404-1.896,1.957-2.941l5.288,0.088c0.286-0.693,0.541-1.401,0.756-2.125l-4.407-2.573
						c0.109-0.558,0.192-1.124,0.242-1.698c0.05-0.574,0.067-1.14,0.055-1.698l4.857-2.573c-0.089-0.723-0.219-1.431-0.384-2.124
						l-5.304,0.088c-0.37-1.045-0.854-2.03-1.442-2.941l3.121-4.542c-0.443-0.546-0.917-1.066-1.42-1.557l-4.78,2.723
						c-0.852-0.668-1.787-1.239-2.792-1.7l0.551-5.296c-0.673-0.226-1.365-0.418-2.075-0.57l-2.978,4.632
						c-0.553-0.06-1.116-0.093-1.69-0.093c-0.574,0-1.143,0.033-1.706,0.093l-2.168-4.632c-0.737,0.152-1.462,0.344-2.174,0.57
						l-0.376,5.296c-1.085,0.461-2.121,1.032-3.089,1.7l-4.303-2.723c-0.589,0.491-1.154,1.01-1.693,1.557l2.326,4.542
						c-0.748,0.91-1.404,1.895-1.957,2.941l-5.288-0.088c-0.286,0.693-0.541,1.401-0.756,2.124l4.407,2.573
						c-0.109,0.558-0.192,1.124-0.242,1.698C245.794,236.91,245.777,237.476,245.789,238.034z M252.246,236.335
						c0.447-5.108,4.95-9.249,10.058-9.249s8.887,4.141,8.44,9.249c-0.447,5.108-4.95,9.249-10.058,9.249
						C255.578,245.584,251.799,241.443,252.246,236.335z"/>
					<path style="opacity:0.5;fill:#FFFFFF;" d="M245.789,238.034l-4.857,2.573c0.089,0.723,0.219,1.431,0.385,2.125l5.303-0.088
						c0.37,1.045,0.854,2.031,1.442,2.941l-3.121,4.542c0.443,0.546,0.917,1.066,1.42,1.557l4.78-2.723
						c0.852,0.668,1.787,1.239,2.792,1.7l-0.551,5.296c0.673,0.226,1.365,0.418,2.075,0.57l2.978-4.632
						c0.553,0.06,1.116,0.093,1.69,0.093c0.574,0,1.143-0.033,1.706-0.093l2.168,4.632c0.737-0.152,1.462-0.344,2.174-0.57
						l0.376-5.296c1.085-0.461,2.121-1.032,3.089-1.7l4.303,2.723c0.589-0.491,1.154-1.011,1.693-1.557l-2.326-4.542
						c0.748-0.91,1.404-1.896,1.957-2.941l5.288,0.088c0.286-0.693,0.541-1.401,0.756-2.125l-4.407-2.573
						c0.109-0.558,0.192-1.124,0.242-1.698c0.05-0.574,0.067-1.14,0.055-1.698l4.857-2.573c-0.089-0.723-0.219-1.431-0.384-2.124
						l-5.304,0.088c-0.37-1.045-0.854-2.03-1.442-2.941l3.121-4.542c-0.443-0.546-0.917-1.066-1.42-1.557l-4.78,2.723
						c-0.852-0.668-1.787-1.239-2.792-1.7l0.551-5.296c-0.673-0.226-1.365-0.418-2.075-0.57l-2.978,4.632
						c-0.553-0.06-1.116-0.093-1.69-0.093c-0.574,0-1.143,0.033-1.706,0.093l-2.168-4.632c-0.737,0.152-1.462,0.344-2.174,0.57
						l-0.376,5.296c-1.085,0.461-2.121,1.032-3.089,1.7l-4.303-2.723c-0.589,0.491-1.154,1.01-1.693,1.557l2.326,4.542
						c-0.748,0.91-1.404,1.895-1.957,2.941l-5.288-0.088c-0.286,0.693-0.541,1.401-0.756,2.124l4.407,2.573
						c-0.109,0.558-0.192,1.124-0.242,1.698C245.794,236.91,245.777,237.476,245.789,238.034z M252.246,236.335
						c0.447-5.108,4.95-9.249,10.058-9.249s8.887,4.141,8.44,9.249c-0.447,5.108-4.95,9.249-10.058,9.249
						C255.578,245.584,251.799,241.443,252.246,236.335z"/>
				</g>
			</g>
			<g>
				<path style="opacity:0.2;fill:#FFFFFF;" d="M329.403,78.729H227.476c-8.836,0-16.499,7.163-17.117,15.999l-17.035,243.617
					L329.403,78.729z"/>
			</g>
		</g>
	</g>
</g>
<g id="Sparkles">
	<g>
		<g>
			<g>
				<path style="fill:#407BFF;" d="M253,128.218c0.091-0.035,0.331-1.768,0.591-3.868c0.54-4.37,3.132-7.751,6.399-8.417
					c2.357-0.481,2.357-0.481,2.357-0.481s-3.7,0-5.243-1.08c-3.27-2.289-4.021-9.05-4.021-9.05s-0.916,6.761-4.187,9.05
					c-1.543,1.08-5.243,1.08-5.243,1.08s0,0,2.357,0.481c3.266,0.667,5.858,4.048,6.399,8.417
					C252.669,126.45,252.909,128.183,253,128.218z"/>
			</g>
			<g style="opacity:0.7;">
				<path style="fill:#FFFFFF;" d="M253,128.218c0.091-0.035,0.331-1.768,0.591-3.868c0.54-4.37,3.132-7.751,6.399-8.417
					c2.357-0.481,2.357-0.481,2.357-0.481s-3.7,0-5.243-1.08c-3.27-2.289-4.021-9.05-4.021-9.05s-0.916,6.761-4.187,9.05
					c-1.543,1.08-5.243,1.08-5.243,1.08s0,0,2.357,0.481c3.266,0.667,5.858,4.048,6.399,8.417
					C252.669,126.45,252.909,128.183,253,128.218z"/>
			</g>
		</g>
		<g>
			<g>
				<path style="fill:#407BFF;" d="M179.09,145.98c0.141-0.054,0.514-2.743,0.917-6c0.838-6.779,4.86-12.025,9.927-13.06
					c3.658-0.747,3.658-0.747,3.658-0.747s-5.741,0-8.135-1.675c-5.074-3.552-6.239-14.041-6.239-14.041s-1.422,10.49-6.496,14.041
					c-2.393,1.675-8.135,1.675-8.135,1.675s0,0,3.658,0.747c5.068,1.035,9.089,6.28,9.927,13.06
					C178.576,143.237,178.949,145.926,179.09,145.98z"/>
			</g>
			<g style="opacity:0.7;">
				<path style="fill:#FFFFFF;" d="M179.09,145.98c0.141-0.054,0.514-2.743,0.917-6c0.838-6.779,4.86-12.025,9.927-13.06
					c3.658-0.747,3.658-0.747,3.658-0.747s-5.741,0-8.135-1.675c-5.074-3.552-6.239-14.041-6.239-14.041s-1.422,10.49-6.496,14.041
					c-2.393,1.675-8.135,1.675-8.135,1.675s0,0,3.658,0.747c5.068,1.035,9.089,6.28,9.927,13.06
					C178.576,143.237,178.949,145.926,179.09,145.98z"/>
			</g>
		</g>
		<g>
			<g>
				<path style="fill:#407BFF;" d="M223.255,230.602c0.091-0.035,0.331-1.768,0.591-3.867c0.54-4.37,3.132-7.751,6.399-8.417
					c2.357-0.481,2.357-0.481,2.357-0.481s-3.7,0-5.243-1.08c-3.27-2.289-4.021-9.05-4.021-9.05s-0.916,6.761-4.187,9.05
					c-1.543,1.08-5.243,1.08-5.243,1.08s0,0,2.357,0.481c3.267,0.667,5.858,4.048,6.399,8.417
					C222.924,228.834,223.164,230.567,223.255,230.602z"/>
			</g>
			<g style="opacity:0.7;">
				<path style="fill:#FFFFFF;" d="M223.255,230.602c0.091-0.035,0.331-1.768,0.591-3.867c0.54-4.37,3.132-7.751,6.399-8.417
					c2.357-0.481,2.357-0.481,2.357-0.481s-3.7,0-5.243-1.08c-3.27-2.289-4.021-9.05-4.021-9.05s-0.916,6.761-4.187,9.05
					c-1.543,1.08-5.243,1.08-5.243,1.08s0,0,2.357,0.481c3.267,0.667,5.858,4.048,6.399,8.417
					C222.924,228.834,223.164,230.567,223.255,230.602z"/>
			</g>
		</g>
	</g>
</g>
<g id="Stair">
	<g>
		<path style="fill:#263238;" d="M137.984,411.911c1.642,0.273,2.966-0.797,2.959-2.39l-0.023-4.635h60.459l0.018,3.646
			c0.008,1.593,1.345,3.106,2.986,3.38c1.642,0.273,2.966-0.797,2.959-2.39l-1.126-229.879c-0.008-1.593-1.345-3.106-2.986-3.379
			c-1.642-0.273-2.967,0.797-2.959,2.39l0.018,3.674H139.83l-0.013-2.685c-0.008-1.593-1.345-3.106-2.986-3.379
			c-1.642-0.273-2.967,0.797-2.959,2.39l1.126,229.878C135.006,410.125,136.343,411.638,137.984,411.911z M201.143,356.628h-60.459
			l-0.191-38.892h60.459L201.143,356.628z M140.066,230.585h60.459l0.19,38.892h-60.459L140.066,230.585z M200.739,274.161
			l0.19,38.891H140.47l-0.19-38.891H200.739z M200.312,187.01l0.19,38.891h-60.459l-0.19-38.891H200.312z M140.897,400.202
			l-0.191-38.891h60.459l0.191,38.891H140.897z"/>
		<path style="fill:#263238;" d="M97.191,411.911c1.594,0.273,3.107-0.797,3.38-2.39l0.795-4.635h60.459l-0.625,3.646
			c-0.273,1.593,0.797,3.106,2.39,3.38c1.593,0.273,3.107-0.797,3.38-2.39l39.408-229.879c0.273-1.593-0.797-3.106-2.39-3.379
			c-1.594-0.273-3.107,0.797-3.38,2.39l-0.63,3.674h-60.459l0.46-2.685c0.273-1.593-0.797-3.106-2.39-3.379
			c-1.594-0.273-3.107,0.797-3.381,2.39L94.8,408.532C94.528,410.125,95.598,411.638,97.191,411.911z M170.097,356.628h-60.459
			l6.667-38.892h60.459L170.097,356.628z M131.246,230.585h60.459l-6.667,38.892h-60.459L131.246,230.585z M184.234,274.161
			l-6.667,38.891h-60.459l6.667-38.891H184.234z M199.174,187.01l-6.667,38.891h-60.459l6.667-38.891H199.174z M102.168,400.202
			l6.667-38.891h60.459l-6.667,38.891H102.168z"/>
		<path style="opacity:0.2;fill:#FFFFFF;" d="M97.191,411.911c1.594,0.273,3.107-0.797,3.38-2.39l0.795-4.635h60.459l-0.625,3.646
			c-0.273,1.593,0.797,3.106,2.39,3.38c1.593,0.273,3.107-0.797,3.38-2.39l39.408-229.879c0.273-1.593-0.797-3.106-2.39-3.379
			c-1.594-0.273-3.107,0.797-3.38,2.39l-0.63,3.674h-60.459l0.46-2.685c0.273-1.593-0.797-3.106-2.39-3.379
			c-1.594-0.273-3.107,0.797-3.381,2.39L94.8,408.532C94.528,410.125,95.598,411.638,97.191,411.911z M170.097,356.628h-60.459
			l6.667-38.892h60.459L170.097,356.628z M131.246,230.585h60.459l-6.667,38.892h-60.459L131.246,230.585z M184.234,274.161
			l-6.667,38.891h-60.459l6.667-38.891H184.234z M199.174,187.01l-6.667,38.891h-60.459l6.667-38.891H199.174z M102.168,400.202
			l6.667-38.891h60.459l-6.667,38.891H102.168z"/>
	</g>
</g>
<g id="Character">
	<g>
		<g>
			
				<rect x="218.089" y="145.576" transform="matrix(-1 -1.224647e-16 1.224647e-16 -1 495.722 300.0595)" style="fill:#263238;" width="59.543" height="8.907"/>
			
				<rect x="218.089" y="148.158" transform="matrix(-1 -1.224647e-16 1.224647e-16 -1 495.722 300.0595)" style="opacity:0.1;fill:#FFFFFF;" width="59.543" height="3.743"/>
		</g>
		<g>
			<path style="fill:#263238;" d="M115.521,218.736c-0.547,0-1.074-0.3-1.338-0.821c-0.375-0.739-0.08-1.642,0.658-2.017
				l132.341-67.206c0.739-0.374,1.641-0.081,2.017,0.658c0.375,0.739,0.081,1.642-0.658,2.017l-132.341,67.206
				C115.981,218.684,115.749,218.736,115.521,218.736z"/>
		</g>
		<g>
			<path style="fill:#DD8C6A;" d="M125.836,178.639c0,0-10.811,11.287-7.843,17.154c2.968,5.866,9.717,13.993,9.717,13.993
				s-0.26,3.056,2.602,3.628l5.845-4.767c0,0-3.999-0.934-6.853-0.934l-4.878-15.744l7.541-10.387L125.836,178.639z"/>
			<path style="fill:#DD8C6A;" d="M136.157,208.647l1.585,2.685c0.698,1.182,0.388,2.701-0.718,3.514l-0.292,0.215
				c-0.82,0.603-1.911,0.689-2.815,0.22l-3.605-1.868L136.157,208.647z"/>
		</g>
		<g>
			<g>
				<polygon style="fill:#DD8C6A;" points="100.252,324.307 95.687,336.969 102.715,339.69 108.198,328.014 				"/>
				<g>
					<path style="fill:#407BFF;" d="M103.438,340.298c-0.066-0.042-0.1-0.118-0.088-0.195c0.014-0.077,0.075-0.137,0.152-0.15
						c0.137-0.023,3.25-0.536,4.353,0.259c0.207,0.145,0.35,0.364,0.397,0.612c0.082,0.286-0.026,0.591-0.268,0.763
						c-0.449,0.281-1.458,0.097-2.372-0.243C104.858,341.059,104.13,340.71,103.438,340.298z M104.089,340.274
						c1.307,0.678,3.168,1.356,3.687,1.004c0.072-0.041,0.156-0.129,0.107-0.394c-0.023-0.155-0.116-0.292-0.252-0.371
						c-0.097-0.071-0.204-0.127-0.317-0.167C106.253,340.119,105.159,340.095,104.089,340.274z"/>
					<path style="fill:#407BFF;" d="M103.349,340.254c-0.04-0.054-0.048-0.126-0.02-0.187c0.044-0.089,0.978-2.001,2.202-2.423
						c0.354-0.127,0.744-0.105,1.081,0.063c0.462,0.226,0.522,0.525,0.466,0.731c-0.151,0.886-2.513,1.825-3.537,1.888
						c-0.027,0.003-0.054-0.005-0.075-0.021C103.422,340.304,103.38,340.285,103.349,340.254z M106.373,337.994
						c-0.22-0.084-0.463-0.086-0.684-0.005c-0.785,0.43-1.419,1.091-1.816,1.893c1.113-0.201,2.736-1.018,2.877-1.534
						c0.004-0.05,0.03-0.184-0.274-0.327L106.373,337.994L106.373,337.994z"/>
					<path style="fill:#263238;" d="M103.069,338.988l-8.035-2.985c-0.303-0.113-0.643,0-0.819,0.271l-3.881,5.997
						c-0.348,0.529-0.201,1.241,0.328,1.589c0.068,0.045,0.14,0.082,0.216,0.111c2.915,1.026,5.549,1.824,9.154,3.168
						c4.255,1.582,2.986,1.69,7.963,3.62c2.999,1.16,4.824-2.062,3.609-2.705c-5.576-2.909-5.528-4.901-7.006-7.834
						C104.256,339.637,103.712,339.198,103.069,338.988z"/>
				</g>
				<polygon style="opacity:0.2;fill:#263238;" points="98.064,330.378 105.434,333.9 108.198,328.014 100.252,324.307 				"/>
			</g>
			<g>
				<polygon style="fill:#DD8C6A;" points="142.282,336.426 143.499,349.832 151.018,349.326 151.05,336.426 				"/>
				<g>
					<path style="fill:#407BFF;" d="M152.314,349.102c-0.077-0.014-0.138-0.071-0.156-0.147c-0.017-0.077,0.016-0.155,0.083-0.197
						c0.118-0.074,2.8-1.735,4.123-1.422c0.247,0.055,0.462,0.203,0.601,0.414c0.184,0.233,0.202,0.557,0.043,0.808
						c-0.308,0.431-1.31,0.645-2.286,0.68C153.917,349.263,153.111,349.217,152.314,349.102z M152.906,348.831
						c1.467,0.129,3.446,0.045,3.791-0.478c0.051-0.065,0.095-0.179-0.051-0.405c-0.081-0.135-0.218-0.226-0.374-0.247
						c-0.117-0.028-0.237-0.04-0.357-0.033C154.848,347.862,153.827,348.256,152.906,348.831z"/>
					<path style="fill:#407BFF;" d="M152.215,349.094c-0.058-0.035-0.092-0.098-0.089-0.165c0.007-0.099,0.141-2.223,1.111-3.08
						c0.279-0.253,0.648-0.381,1.023-0.354c0.514,0.033,0.683,0.286,0.71,0.498c0.199,0.877-1.626,2.646-2.549,3.095
						c-0.024,0.013-0.051,0.016-0.077,0.01C152.301,349.113,152.255,349.111,152.215,349.094z M154.148,345.851
						c-0.235,0.006-0.461,0.097-0.634,0.257c-0.561,0.697-0.895,1.55-0.956,2.443c0.952-0.61,2.141-1.985,2.074-2.516
						c-0.016-0.047-0.042-0.181-0.378-0.197L154.148,345.851L154.148,345.851z"/>
					<path style="fill:#263238;" d="M151.473,348.031l-8.566,0.306c-0.323,0.011-0.595,0.245-0.654,0.563l-1.299,7.024
						c-0.12,0.622,0.288,1.224,0.91,1.343c0.08,0.015,0.161,0.022,0.242,0.021c3.086-0.164,5.826-0.431,9.67-0.564
						c4.537-0.161,3.405,0.423,8.741,0.308c3.215-0.072,3.673-3.746,2.304-3.877c-6.265-0.562-6.98-2.422-9.465-4.568
						C152.818,348.178,152.148,347.98,151.473,348.031z"/>
				</g>
				<polygon style="opacity:0.2;fill:#263238;" points="151.05,336.426 142.282,336.426 142.918,343.429 151.033,343.2 				"/>
			</g>
			<g>
				<path style="fill:#407BFF;" d="M135.832,212.236c0,0-13.449,8.853-11.25,34.905l-2.237,29.502c0,0-13.34,8.944-23.963,50.172
					c0,0,3.561,3.119,9.358,4.553l32.081-49.069l11.873-51.092l1.389-17.009L135.832,212.236z"/>
				<path style="opacity:0.1;" d="M135.832,212.236c0,0-13.449,8.853-11.25,34.905l-2.237,29.502c0,0-13.34,8.944-23.963,50.172
					c0,0,3.561,3.119,9.358,4.553l32.081-49.069l11.873-51.092l1.389-17.009L135.832,212.236z"/>
				<path style="opacity:0.2;" d="M145.75,256.789l-4.844-18.754l-7.708-3.794c0,0-0.01,36.574,3.458,52.899l3.165-4.842
					L145.75,256.789z"/>
				<path style="fill:#407BFF;" d="M134.738,168.097c0,0-4.218-0.798-7.723,3.17c-3.505,3.968-7.169,11.105-7.169,11.105
					s4.527,5.646,9.683,4.929L134.738,168.097z"/>
				<path style="opacity:0.1;" d="M134.738,168.097c0,0-4.218-0.798-7.723,3.17c-3.505,3.968-7.169,11.105-7.169,11.105
					s4.527,5.646,9.683,4.929L134.738,168.097z"/>
				<path style="opacity:0.1;" d="M129.529,187.301l4.144-15.277l-4.149,0.513C129.524,172.536,127.353,186.24,129.529,187.301z"/>
				<path style="fill:#407BFF;" d="M139.03,212.236c0,0-11.097,12.141-4.309,35.917l4.765,29.846c0,0-6.072,28.429,1.388,62.222
					c0,0,5.792,0.927,11.318-0.253l6.933-63.627l3.472-60.816L139.03,212.236z"/>
			</g>
		</g>
		<g>
			<path style="fill:#263238;" d="M154.559,144.496c0.322-0.057,0.66,0.28,0.758,0.766c0.099,0.486-0.074,0.939-0.396,0.997
				c-0.321,0.058-0.659-0.28-0.758-0.766C154.04,144.991,154.237,144.554,154.559,144.496z"/>
			<path style="fill:#932A2A;" d="M155.193,150.941c0.844,0.044,1.665-0.288,2.241-0.906c-1.22-1.083-2.288-2.328-3.173-3.7
				L155.193,150.941z"/>
			<path style="fill:#263238;" d="M152.037,143.096c0.48-0.574,1.207-0.881,1.953-0.824l0,0c0.031,0.011,0.063,0.016,0.096,0.016
				c0.164,0.001,0.298-0.131,0.298-0.295c0.001-0.164-0.132-0.297-0.295-0.298c-0.932-0.098-1.853,0.261-2.472,0.964
				c-0.047,0.053-0.074,0.12-0.076,0.191c-0.004,0.164,0.126,0.3,0.29,0.303C151.905,143.161,151.978,143.141,152.037,143.096z"/>
			<path style="fill:#DD8C6A;" d="M150.018,159.643c-0.882,3.51-0.915,7.87,2.917,9.065c0,0,4.788,4.013-4.434,4.013
				c-8.381,0-9.617-4.573-9.617-4.573c3.156-3.016,2.621-9.262,1.739-13.778L150.018,159.643z"/>
			<g>
				<path style="fill:#407BFF;" d="M135.458,167.37c0,0,1.524-4.015,3.582-5.206c2.058-1.191,10.748,0.58,12.093,1.185
					c1.346,0.604,2.573,3.835,2.573,3.835L135.458,167.37z"/>
				<path style="opacity:0.4;" d="M135.458,167.37c0,0,1.524-4.015,3.582-5.206c2.058-1.191,10.748,0.58,12.093,1.185
					c1.346,0.604,2.573,3.835,2.573,3.835L135.458,167.37z"/>
			</g>
			<path style="fill:#407BFF;" d="M128.706,174.208c2.837,16.957,2.022,33.682,1.27,42.372c-0.127,1.419-0.243,2.625-0.349,3.578
				c-0.085,0.762-0.148,1.365-0.201,1.799l32.973-0.191c0.074-0.54,0.138-1.08,0.201-1.609c0.148-1.228,0.296-2.413,0.434-3.578
				c2.763-23.721,2.392-36.18,1.154-42.393c-0.709-3.557-3.556-6.309-7.134-6.912c-0.381-0.063-1.662-0.148-3.398-0.233
				c-0.942-0.042-2.032-0.095-3.186-0.127c-3.557-0.138-7.738-0.212-10.522-0.127c-0.487,0.011-0.932,0.032-1.323,0.063
				c-1.027,0.064-2.053,0.159-3.07,0.275c-0.582,0.053-1.154,0.127-1.736,0.201C130.474,167.751,128.156,170.874,128.706,174.208z"
				/>
			<path style="fill:#DD8C6A;" d="M137.408,145.946c0.021,0.614,0.127,1.217,0.286,1.821c1.154,4.34,1.81,7.399,3.514,9.696
				c0.614,0.836,1.365,1.567,2.339,2.223c5.494,3.694,12.364-0.55,12.543-6.817c0.191-5.642-2.435-14.364-8.775-15.56
				c-4.53-0.868-8.913,2.096-9.781,6.626C137.408,144.602,137.365,145.279,137.408,145.946z"/>
			<g style="opacity:0.2;">
				<path d="M137.408,145.946c0.021,0.614,0.127,1.217,0.286,1.821c1.154,4.34,1.81,7.399,3.514,9.696l6.457,0.074l3.017-7.526
					l0.815-7.272C151.496,142.739,142.69,145.533,137.408,145.946z"/>
			</g>
			<path style="fill:#263238;" d="M137.408,148.623c-1.027-1.279-3.535-5.455-3.399-7.089c2.029-2.477,4.578-4.664,7.593-5.743
				c3.313-1.186,6.781-1.341,10.23-0.641c0.831,1.246,1.374,2.773,1.766,4.22c0.391,1.447,0.289,3.102-0.616,4.296
				C150.056,147.523,138.435,149.902,137.408,148.623z"/>
			<path style="fill:#DD8C6A;" d="M150.99,145.164c1.755,0.536,2.645,3.14,2.703,4.788c0.066,1.821-1.162,2.958-2.736,1.722
				c-1.185-0.952-2.024-2.266-2.39-3.741C148.156,146.145,149.235,144.628,150.99,145.164z"/>
			<path style="opacity:0.1;fill:#FFFFFF;" d="M134.052,141.49c0.307,0.095,0.614,0.169,0.931,0.222
				c1.461,0.243,3.006,0.265,4.478,0.169c0.296,0.582,0.593,1.164,0.889,1.757v-1.757c0.286,0.413,0.688,1.09,0.974,1.503
				c-0.042-0.497,0.042-1.08,0-1.588c3.197-0.413,6.256-1.821,8.648-3.991c0.624-0.572,1.207-1.207,1.545-1.99
				c0.095-0.222,0.169-0.455,0.201-0.688c-3.409-0.678-6.849-0.508-10.119,0.667C138.604,136.864,136.074,139.034,134.052,141.49z"
				/>
		</g>
		<path style="opacity:0.2;" d="M165.06,182.2c0-2.059-0.195-3.935-0.702-5.625l-4.776-2.422l-2.944,4.346
			c0,0,4.642,9.486,8.476,13.364C165.583,188.017,165.06,184.528,165.06,182.2z"/>
		<path style="fill:#DD8C6A;" d="M162.17,172.72c0,0,15.053,9.852,14.084,9.807l19.827-7.285c0,0,1.082-3.554,1.362-3.933
			l1.865-1.613c0.39-0.528,1.03-0.811,1.683-0.744l1.402,0.482c0.829,0.666,1.483,0.666,1.47,1.104l-1.93,1.984l-3.328,4.247
			c0,0-16.563,10.198-20.834,13.014c-4.271,2.816-15.446-7.164-15.446-7.164L162.17,172.72z"/>
		<path style="fill:#407BFF;" d="M158.198,169.288c4.373,0.64,8.841,4.117,15.778,10.256c0,0-2.277,5.248-7.335,8.473
			c0,0-4.047-1.771-8.864-7.9C151.95,172.702,155.517,168.896,158.198,169.288z"/>
		<path style="opacity:0.2;" d="M147.728,220.158H162.6c0.148-1.228,0.296-2.413,0.434-3.578h-14.618L147.728,220.158z"/>
		<path style="opacity:0.2;" d="M129.628,220.158h1.492l0.297-3.578h-1.44C129.85,217.999,129.733,219.206,129.628,220.158z"/>
	</g>
</g>
</svg>
